<svg xmlns="http://www.w3.org/2000/svg" width="258" height="35" viewBox="0 0 258 35">
  <defs>
    <style>
      .cls-1 {
        fill: #4ca8e9;
        fill-rule: evenodd;
      }
    </style>
  </defs>
  <path id="SAFE.AD" class="cls-1" d="M75.011,53.478A12.607,12.607,0,0,0,70.257,50.8,18.711,18.711,0,0,0,64.8,50a16.688,16.688,0,0,0-4.754.682,12.287,12.287,0,0,0-4.072,2.046,10.218,10.218,0,0,0-2.824,3.387,10,10,0,0,0-1.059,4.7,7.8,7.8,0,0,0,1.153,4.469,9.064,9.064,0,0,0,2.895,2.729A16.865,16.865,0,0,0,59.9,69.661q2.023,0.612,3.766,1.223a10.639,10.639,0,0,1,2.895,1.482,2.818,2.818,0,0,1,1.153,2.376,2.7,2.7,0,0,1-.447,1.552,3.553,3.553,0,0,1-1.177,1.082,5.922,5.922,0,0,1-1.647.635,8.012,8.012,0,0,1-5.366-.612A7.613,7.613,0,0,1,56.23,75.07L51,80.809a15.076,15.076,0,0,0,5.178,3.2,18.79,18.79,0,0,0,10.944.329,11.908,11.908,0,0,0,4.1-2.023,9.831,9.831,0,0,0,2.8-3.434,10.7,10.7,0,0,0,1.036-4.845,8.458,8.458,0,0,0-1.13-4.657A8.756,8.756,0,0,0,71.081,66.6a15.259,15.259,0,0,0-3.7-1.6q-1.977-.564-3.7-1.129a10.693,10.693,0,0,1-2.848-1.364,2.649,2.649,0,0,1-1.13-2.3,2.677,2.677,0,0,1,.471-1.6,3.486,3.486,0,0,1,1.224-1.059,6.334,6.334,0,0,1,1.6-.588,7.62,7.62,0,0,1,1.647-.188,8.714,8.714,0,0,1,2.895.541,5.238,5.238,0,0,1,2.424,1.67ZM87,83.993h8.1l9.388-24.309h0l9.222,24.309H122L107.49,51h-6.078Zm48.012,0h7.22V71.132h14.636v-6.71H142.228V57.711h14.764V51H135.008V83.993Zm36.983,0h22.7v-6.71H179.4V70.572H195v-6.71H179.4V57.711h15.445V51H171.991V83.993Zm38.344-14.737a4.322,4.322,0,0,0,2.4,2.4,4.7,4.7,0,0,0,3.523,0,4.322,4.322,0,0,0,2.4-2.4,4.691,4.691,0,0,0,0-3.521,4.324,4.324,0,0,0-2.4-2.4,4.706,4.706,0,0,0-3.523,0,4.324,4.324,0,0,0-2.4,2.4A4.691,4.691,0,0,0,210.335,69.256ZM231,83.993h8.1L248.44,60.2h0l9.273,23.794h8.292L251.494,51h-6.078Zm47.011,0h12.1a23.784,23.784,0,0,0,7.166-1.072,18.451,18.451,0,0,0,6.026-3.145,15.239,15.239,0,0,0,4.153-5.126A15.465,15.465,0,0,0,309,67.59a17,17,0,0,0-1.59-7.689,14.1,14.1,0,0,0-4.294-5.149,17.7,17.7,0,0,0-6.335-2.866A32.289,32.289,0,0,0,289.115,51h-11.1V83.993Zm7.4-26.283h4.366a16.629,16.629,0,0,1,4.437.582,11.023,11.023,0,0,1,3.678,1.747A8.477,8.477,0,0,1,300.385,63a9.083,9.083,0,0,1,.925,4.217,10.9,10.9,0,0,1-.925,4.73,8.19,8.19,0,0,1-2.539,3.122,10.277,10.277,0,0,1-3.82,1.7,21.031,21.031,0,0,1-4.769.513h-3.844V57.711Z" transform="translate(-51 -50)"/>
</svg>
